<?xml version="1.0" encoding="UTF-8" standalone="no"?>
<!DOCTYPE svg PUBLIC "-//W3C//DTD SVG 1.1//EN"
 "http://www.w3.org/Graphics/SVG/1.1/DTD/svg11.dtd">
<!-- Generated by graphviz version 2.40.1 (20161225.0304)
 -->
<!-- Title: models_diagram Pages: 1 -->
<svg width="1300pt" height="865pt"
 viewBox="0.00 0.00 1299.50 865.00" xmlns="http://www.w3.org/2000/svg" xmlns:xlink="http://www.w3.org/1999/xlink">
<g id="graph0" class="graph" transform="scale(1 1) rotate(0) translate(36 829)">
<title>models_diagram</title>
<polygon fill="#ffffff" stroke="transparent" points="-36,36 -36,-829 1263.5,-829 1263.5,36 -36,36"/>
<!-- Admin -->
<g id="node1" class="node">
<title>Admin</title>
<polygon fill="#add8e6" stroke="transparent" points="779.5,-744 779.5,-766 868.5,-766 868.5,-744 779.5,-744"/>
<polygon fill="none" stroke="#000000" points="779.5,-744 779.5,-766 868.5,-766 868.5,-744 779.5,-744"/>
<text text-anchor="start" x="810.1115" y="-753" font-family="Times,serif" font-weight="bold" font-size="10.00" fill="#000000">Admin</text>
<polygon fill="none" stroke="#000000" points="779.5,-722 779.5,-744 868.5,-744 868.5,-722 779.5,-722"/>
<text text-anchor="start" x="784.5" y="-731" font-family="Times,serif" text-decoration="underline" font-size="10.00" fill="#000000">id</text>
<text text-anchor="start" x="792.279" y="-731" font-family="Times,serif" font-size="10.00" fill="#000000">: NUMBER</text>
<polygon fill="none" stroke="#000000" points="779.5,-700 779.5,-722 868.5,-722 868.5,-700 779.5,-700"/>
<text text-anchor="start" x="784.5" y="-708" font-family="Times,serif" font-size="10.00" fill="#000000">email: STRING</text>
<polygon fill="none" stroke="#000000" points="779.5,-678 779.5,-700 868.5,-700 868.5,-678 779.5,-678"/>
<text text-anchor="start" x="784.426" y="-686" font-family="Times,serif" font-size="10.00" fill="#000000">password: STRING</text>
<polygon fill="none" stroke="#000000" points="779.5,-656 779.5,-678 868.5,-678 868.5,-656 779.5,-656"/>
<text text-anchor="start" x="784.1515" y="-664" font-family="Times,serif" font-size="10.00" fill="#000000">username: STRING</text>
<polygon fill="none" stroke="#000000" points="779.5,-634 779.5,-656 868.5,-656 868.5,-634 779.5,-634"/>
<text text-anchor="start" x="784.5" y="-642" font-family="Times,serif" font-size="10.00" fill="#000000">role: STRING</text>
<polygon fill="none" stroke="#000000" points="779.5,-612 779.5,-634 868.5,-634 868.5,-612 779.5,-612"/>
<text text-anchor="start" x="784.5" y="-620" font-family="Times,serif" font-size="10.00" fill="#000000">phone: STRING</text>
<polygon fill="none" stroke="#000000" points="779.5,-590 779.5,-612 868.5,-612 868.5,-590 779.5,-590"/>
<text text-anchor="start" x="784.5" y="-598" font-family="Times,serif" font-size="10.00" fill="#000000">status: ENUM</text>
<polygon fill="none" stroke="#000000" points="779.5,-568 779.5,-590 868.5,-590 868.5,-568 779.5,-568"/>
<text text-anchor="start" x="784.5" y="-576" font-family="Times,serif" font-size="10.00" fill="#000000">createdAt: DATE</text>
<polygon fill="none" stroke="#000000" points="779.5,-546 779.5,-568 868.5,-568 868.5,-546 779.5,-546"/>
<text text-anchor="start" x="784.5" y="-554" font-family="Times,serif" font-size="10.00" fill="#000000">updatedAt: DATE</text>
</g>
<!-- Category -->
<g id="node2" class="node">
<title>Category</title>
<polygon fill="#add8e6" stroke="transparent" points=".5,-402 .5,-424 109.5,-424 109.5,-402 .5,-402"/>
<polygon fill="none" stroke="#000000" points=".5,-402 .5,-424 109.5,-424 109.5,-402 .5,-402"/>
<text text-anchor="start" x="36.6725" y="-411" font-family="Times,serif" font-weight="bold" font-size="10.00" fill="#000000">Category</text>
<polygon fill="none" stroke="#000000" points=".5,-380 .5,-402 109.5,-402 109.5,-380 .5,-380"/>
<text text-anchor="start" x="5.5" y="-389" font-family="Times,serif" text-decoration="underline" font-size="10.00" fill="#000000">id</text>
<text text-anchor="start" x="13.279" y="-389" font-family="Times,serif" font-size="10.00" fill="#000000">: NUMBER</text>
<polygon fill="none" stroke="#000000" points=".5,-358 .5,-380 109.5,-380 109.5,-358 .5,-358"/>
<text text-anchor="start" x="5.158" y="-366" font-family="Times,serif" font-size="10.00" fill="#000000">categoryName: STRING</text>
<polygon fill="none" stroke="#000000" points=".5,-336 .5,-358 109.5,-358 109.5,-336 .5,-336"/>
<text text-anchor="start" x="5.5" y="-344" font-family="Times,serif" font-size="10.00" fill="#000000">createdAt: DATE</text>
<polygon fill="none" stroke="#000000" points=".5,-314 .5,-336 109.5,-336 109.5,-314 .5,-314"/>
<text text-anchor="start" x="5.5" y="-322" font-family="Times,serif" font-size="10.00" fill="#000000">updatedAt: DATE</text>
</g>
<!-- Order -->
<g id="node3" class="node">
<title>Order</title>
<polygon fill="#add8e6" stroke="transparent" points="1113.5,-479 1113.5,-501 1222.5,-501 1222.5,-479 1113.5,-479"/>
<polygon fill="none" stroke="#000000" points="1113.5,-479 1113.5,-501 1222.5,-501 1222.5,-479 1113.5,-479"/>
<text text-anchor="start" x="1156.342" y="-488" font-family="Times,serif" font-weight="bold" font-size="10.00" fill="#000000">Order</text>
<polygon fill="none" stroke="#000000" points="1113.5,-457 1113.5,-479 1222.5,-479 1222.5,-457 1113.5,-457"/>
<text text-anchor="start" x="1118.5" y="-466" font-family="Times,serif" text-decoration="underline" font-size="10.00" fill="#000000">id</text>
<text text-anchor="start" x="1126.279" y="-466" font-family="Times,serif" font-size="10.00" fill="#000000">: NUMBER</text>
<polygon fill="none" stroke="#000000" points="1113.5,-435 1113.5,-457 1222.5,-457 1222.5,-435 1113.5,-435"/>
<text text-anchor="start" x="1118.5" y="-444" font-family="Times,serif" font-style="italic" text-decoration="underline" font-size="10.00" fill="#000000">user_id</text>
<text text-anchor="start" x="1147.936" y="-444" font-family="Times,serif" font-size="10.00" fill="#000000">: NUMBER</text>
<polygon fill="none" stroke="#000000" points="1113.5,-413 1113.5,-435 1222.5,-435 1222.5,-413 1113.5,-413"/>
<text text-anchor="start" x="1118.5" y="-422" font-family="Times,serif" font-style="italic" text-decoration="underline" font-size="10.00" fill="#000000">payment_id</text>
<text text-anchor="start" x="1165.715" y="-422" font-family="Times,serif" font-size="10.00" fill="#000000">: NUMBER</text>
<polygon fill="none" stroke="#000000" points="1113.5,-391 1113.5,-413 1222.5,-413 1222.5,-391 1113.5,-391"/>
<text text-anchor="start" x="1118.5" y="-399" font-family="Times,serif" font-size="10.00" fill="#000000">name_receive: STRING</text>
<polygon fill="none" stroke="#000000" points="1113.5,-369 1113.5,-391 1222.5,-391 1222.5,-369 1113.5,-369"/>
<text text-anchor="start" x="1118.157" y="-377" font-family="Times,serif" font-size="10.00" fill="#000000">phone_receive: STRING</text>
<polygon fill="none" stroke="#000000" points="1113.5,-347 1113.5,-369 1222.5,-369 1222.5,-347 1113.5,-347"/>
<text text-anchor="start" x="1118.5" y="-355" font-family="Times,serif" font-size="10.00" fill="#000000">address: STRING</text>
<polygon fill="none" stroke="#000000" points="1113.5,-325 1113.5,-347 1222.5,-347 1222.5,-325 1113.5,-325"/>
<text text-anchor="start" x="1118.5" y="-333" font-family="Times,serif" font-size="10.00" fill="#000000">email: STRING</text>
<polygon fill="none" stroke="#000000" points="1113.5,-303 1113.5,-325 1222.5,-325 1222.5,-303 1113.5,-303"/>
<text text-anchor="start" x="1118.5" y="-311" font-family="Times,serif" font-size="10.00" fill="#000000">total_price: NUMBER</text>
<polygon fill="none" stroke="#000000" points="1113.5,-281 1113.5,-303 1222.5,-303 1222.5,-281 1113.5,-281"/>
<text text-anchor="start" x="1118.5" y="-289" font-family="Times,serif" font-size="10.00" fill="#000000">status: ENUM</text>
<polygon fill="none" stroke="#000000" points="1113.5,-259 1113.5,-281 1222.5,-281 1222.5,-259 1113.5,-259"/>
<text text-anchor="start" x="1118.5" y="-267" font-family="Times,serif" font-size="10.00" fill="#000000">createdAt: DATE</text>
<polygon fill="none" stroke="#000000" points="1113.5,-237 1113.5,-259 1222.5,-259 1222.5,-237 1113.5,-237"/>
<text text-anchor="start" x="1118.5" y="-245" font-family="Times,serif" font-size="10.00" fill="#000000">updatedAt: DATE</text>
</g>
<!-- OrderDetail -->
<g id="node4" class="node">
<title>OrderDetail</title>
<polygon fill="#add8e6" stroke="transparent" points="496.5,-457 496.5,-479 627.5,-479 627.5,-457 496.5,-457"/>
<polygon fill="none" stroke="#000000" points="496.5,-457 496.5,-479 627.5,-479 627.5,-457 496.5,-457"/>
<text text-anchor="start" x="538.125" y="-466" font-family="Times,serif" font-weight="bold" font-size="10.00" fill="#000000">OrderDetail</text>
<polygon fill="none" stroke="#000000" points="496.5,-435 496.5,-457 627.5,-457 627.5,-435 496.5,-435"/>
<text text-anchor="start" x="501.5" y="-444" font-family="Times,serif" text-decoration="underline" font-size="10.00" fill="#000000">order_id</text>
<text text-anchor="start" x="535.376" y="-444" font-family="Times,serif" font-size="10.00" fill="#000000">: NUMBER</text>
<polygon fill="none" stroke="#000000" points="496.5,-413 496.5,-435 627.5,-435 627.5,-413 496.5,-413"/>
<text text-anchor="start" x="501.5" y="-422" font-family="Times,serif" text-decoration="underline" font-size="10.00" fill="#000000">product_id</text>
<text text-anchor="start" x="544.826" y="-422" font-family="Times,serif" font-size="10.00" fill="#000000">: NUMBER</text>
<polygon fill="none" stroke="#000000" points="496.5,-391 496.5,-413 627.5,-413 627.5,-391 496.5,-391"/>
<text text-anchor="start" x="501.5" y="-399" font-family="Times,serif" font-size="10.00" fill="#000000">product_name: STRING</text>
<polygon fill="none" stroke="#000000" points="496.5,-369 496.5,-391 627.5,-391 627.5,-369 496.5,-369"/>
<text text-anchor="start" x="501.5" y="-377" font-family="Times,serif" font-size="10.00" fill="#000000">quantity: NUMBER</text>
<polygon fill="none" stroke="#000000" points="496.5,-347 496.5,-369 627.5,-369 627.5,-347 496.5,-347"/>
<text text-anchor="start" x="501.5" y="-355" font-family="Times,serif" font-size="10.00" fill="#000000">product_img: STRING</text>
<polygon fill="none" stroke="#000000" points="496.5,-325 496.5,-347 627.5,-347 627.5,-325 496.5,-325"/>
<text text-anchor="start" x="501.5" y="-333" font-family="Times,serif" font-size="10.00" fill="#000000">product_price: NUMBER</text>
<polygon fill="none" stroke="#000000" points="496.5,-303 496.5,-325 627.5,-325 627.5,-303 496.5,-303"/>
<text text-anchor="start" x="501.319" y="-311" font-family="Times,serif" font-size="10.00" fill="#000000">product_totalprice: NUMBER</text>
<polygon fill="none" stroke="#000000" points="496.5,-281 496.5,-303 627.5,-303 627.5,-281 496.5,-281"/>
<text text-anchor="start" x="501.5" y="-289" font-family="Times,serif" font-size="10.00" fill="#000000">createdAt: DATE</text>
<polygon fill="none" stroke="#000000" points="496.5,-259 496.5,-281 627.5,-281 627.5,-259 496.5,-259"/>
<text text-anchor="start" x="501.5" y="-267" font-family="Times,serif" font-size="10.00" fill="#000000">updatedAt: DATE</text>
</g>
<!-- Order&#45;&gt;OrderDetail -->
<g id="edge1" class="edge">
<title>Order&#45;&gt;OrderDetail</title>
<path fill="none" stroke="#00cd00" d="M1100.6379,-369C987.6653,-369 759.6036,-369 639.5162,-369"/>
<polygon fill="#00cd00" stroke="#00cd00" points="1100.9208,-369.0001 1112.9208,-374.4 1106.9208,-369 1112.9208,-369 1112.9208,-369 1112.9208,-369 1106.9208,-369 1112.9207,-363.6 1100.9208,-369.0001 1100.9208,-369.0001"/>
<polygon fill="#00cd00" stroke="#00cd00" points="627.1824,-364.8 639.1823,-369.0001 627.1823,-373.2 627.1824,-364.8"/>
</g>
<!-- Payment -->
<g id="node5" class="node">
<title>Payment</title>
<polygon fill="#add8e6" stroke="transparent" points="1107.5,-88 1107.5,-110 1227.5,-110 1227.5,-88 1107.5,-88"/>
<polygon fill="none" stroke="#000000" points="1107.5,-88 1107.5,-110 1227.5,-110 1227.5,-88 1107.5,-88"/>
<text text-anchor="start" x="1150.0025" y="-97" font-family="Times,serif" font-weight="bold" font-size="10.00" fill="#000000">Payment</text>
<polygon fill="none" stroke="#000000" points="1107.5,-66 1107.5,-88 1227.5,-88 1227.5,-66 1107.5,-66"/>
<text text-anchor="start" x="1112.5" y="-75" font-family="Times,serif" text-decoration="underline" font-size="10.00" fill="#000000">id</text>
<text text-anchor="start" x="1120.279" y="-75" font-family="Times,serif" font-size="10.00" fill="#000000">: NUMBER</text>
<polygon fill="none" stroke="#000000" points="1107.5,-44 1107.5,-66 1227.5,-66 1227.5,-44 1107.5,-44"/>
<text text-anchor="start" x="1112.092" y="-52" font-family="Times,serif" font-size="10.00" fill="#000000">payment_method: STRING</text>
<polygon fill="none" stroke="#000000" points="1107.5,-22 1107.5,-44 1227.5,-44 1227.5,-22 1107.5,-22"/>
<text text-anchor="start" x="1112.5" y="-30" font-family="Times,serif" font-size="10.00" fill="#000000">createdAt: DATE</text>
<polygon fill="none" stroke="#000000" points="1107.5,0 1107.5,-22 1227.5,-22 1227.5,0 1107.5,0"/>
<text text-anchor="start" x="1112.5" y="-8" font-family="Times,serif" font-size="10.00" fill="#000000">updatedAt: DATE</text>
</g>
<!-- Order&#45;&gt;Payment -->
<g id="edge4" class="edge">
<title>Order&#45;&gt;Payment</title>
<path fill="none" stroke="#00cd00" d="M1167.5,-224.7195C1167.5,-188.895 1167.5,-152.1815 1167.5,-122.1058"/>
<polygon fill="#00cd00" stroke="#00cd00" points="1163.3,-236.7458 1167.5001,-224.7458 1171.7,-236.7458 1163.3,-236.7458"/>
<polygon fill="#00cd00" stroke="#00cd00" points="1167.5001,-122.0722 1172.9,-110.0722 1167.5,-116.0722 1167.5,-110.0722 1167.5,-110.0722 1167.5,-110.0722 1167.5,-116.0722 1162.1,-110.0723 1167.5001,-122.0722 1167.5001,-122.0722"/>
</g>
<!-- User -->
<g id="node7" class="node">
<title>User</title>
<polygon fill="#add8e6" stroke="transparent" points="1123.5,-771 1123.5,-793 1212.5,-793 1212.5,-771 1123.5,-771"/>
<polygon fill="none" stroke="#000000" points="1123.5,-771 1123.5,-793 1212.5,-793 1212.5,-771 1123.5,-771"/>
<text text-anchor="start" x="1158.562" y="-780" font-family="Times,serif" font-weight="bold" font-size="10.00" fill="#000000">User</text>
<polygon fill="none" stroke="#000000" points="1123.5,-749 1123.5,-771 1212.5,-771 1212.5,-749 1123.5,-749"/>
<text text-anchor="start" x="1128.5" y="-758" font-family="Times,serif" text-decoration="underline" font-size="10.00" fill="#000000">id</text>
<text text-anchor="start" x="1136.279" y="-758" font-family="Times,serif" font-size="10.00" fill="#000000">: NUMBER</text>
<polygon fill="none" stroke="#000000" points="1123.5,-727 1123.5,-749 1212.5,-749 1212.5,-727 1123.5,-727"/>
<text text-anchor="start" x="1128.5" y="-735" font-family="Times,serif" font-size="10.00" fill="#000000">email: STRING</text>
<polygon fill="none" stroke="#000000" points="1123.5,-705 1123.5,-727 1212.5,-727 1212.5,-705 1123.5,-705"/>
<text text-anchor="start" x="1128.426" y="-713" font-family="Times,serif" font-size="10.00" fill="#000000">password: STRING</text>
<polygon fill="none" stroke="#000000" points="1123.5,-683 1123.5,-705 1212.5,-705 1212.5,-683 1123.5,-683"/>
<text text-anchor="start" x="1128.1515" y="-691" font-family="Times,serif" font-size="10.00" fill="#000000">username: STRING</text>
<polygon fill="none" stroke="#000000" points="1123.5,-661 1123.5,-683 1212.5,-683 1212.5,-661 1123.5,-661"/>
<text text-anchor="start" x="1128.5" y="-669" font-family="Times,serif" font-size="10.00" fill="#000000">role: STRING</text>
<polygon fill="none" stroke="#000000" points="1123.5,-639 1123.5,-661 1212.5,-661 1212.5,-639 1123.5,-639"/>
<text text-anchor="start" x="1128.5" y="-647" font-family="Times,serif" font-size="10.00" fill="#000000">phone: STRING</text>
<polygon fill="none" stroke="#000000" points="1123.5,-617 1123.5,-639 1212.5,-639 1212.5,-617 1123.5,-617"/>
<text text-anchor="start" x="1128.5" y="-625" font-family="Times,serif" font-size="10.00" fill="#000000">status: ENUM</text>
<polygon fill="none" stroke="#000000" points="1123.5,-595 1123.5,-617 1212.5,-617 1212.5,-595 1123.5,-595"/>
<text text-anchor="start" x="1128.5" y="-603" font-family="Times,serif" font-size="10.00" fill="#000000">createdAt: DATE</text>
<polygon fill="none" stroke="#000000" points="1123.5,-573 1123.5,-595 1212.5,-595 1212.5,-573 1123.5,-573"/>
<text text-anchor="start" x="1128.5" y="-581" font-family="Times,serif" font-size="10.00" fill="#000000">updatedAt: DATE</text>
</g>
<!-- Order&#45;&gt;User -->
<g id="edge3" class="edge">
<title>Order&#45;&gt;User</title>
<path fill="none" stroke="#00cd00" d="M1167.5,-513.3023C1167.5,-529.0573 1167.5,-544.984 1167.5,-560.4421"/>
<polygon fill="#00cd00" stroke="#00cd00" points="1171.7,-501.2542 1167.5001,-513.2542 1163.3,-501.2542 1171.7,-501.2542"/>
<polygon fill="#00cd00" stroke="#00cd00" points="1167.5001,-560.7265 1162.1,-572.7265 1167.5,-566.7265 1167.5,-572.7265 1167.5,-572.7265 1167.5,-572.7265 1167.5,-566.7265 1172.9,-572.7266 1167.5001,-560.7265 1167.5001,-560.7265"/>
</g>
<!-- Product -->
<g id="node6" class="node">
<title>Product</title>
<polygon fill="#add8e6" stroke="transparent" points="228.5,-446 228.5,-468 333.5,-468 333.5,-446 228.5,-446"/>
<polygon fill="none" stroke="#000000" points="228.5,-446 228.5,-468 333.5,-468 333.5,-446 228.5,-446"/>
<text text-anchor="start" x="265.447" y="-455" font-family="Times,serif" font-weight="bold" font-size="10.00" fill="#000000">Product</text>
<polygon fill="none" stroke="#000000" points="228.5,-424 228.5,-446 333.5,-446 333.5,-424 228.5,-424"/>
<text text-anchor="start" x="233.5" y="-433" font-family="Times,serif" text-decoration="underline" font-size="10.00" fill="#000000">id</text>
<text text-anchor="start" x="241.279" y="-433" font-family="Times,serif" font-size="10.00" fill="#000000">: NUMBER</text>
<polygon fill="none" stroke="#000000" points="228.5,-402 228.5,-424 333.5,-424 333.5,-402 228.5,-402"/>
<text text-anchor="start" x="233.097" y="-410" font-family="Times,serif" font-size="10.00" fill="#000000">productName: STRING</text>
<polygon fill="none" stroke="#000000" points="228.5,-380 228.5,-402 333.5,-402 333.5,-380 228.5,-380"/>
<text text-anchor="start" x="233.5" y="-388" font-family="Times,serif" font-size="10.00" fill="#000000">img: STRING</text>
<polygon fill="none" stroke="#000000" points="228.5,-358 228.5,-380 333.5,-380 333.5,-358 228.5,-358"/>
<text text-anchor="start" x="233.5" y="-366" font-family="Times,serif" font-size="10.00" fill="#000000">price: NUMBER</text>
<polygon fill="none" stroke="#000000" points="228.5,-336 228.5,-358 333.5,-358 333.5,-336 228.5,-336"/>
<text text-anchor="start" x="233.5" y="-344" font-family="Times,serif" font-size="10.00" fill="#000000">description: STRING</text>
<polygon fill="none" stroke="#000000" points="228.5,-314 228.5,-336 333.5,-336 333.5,-314 228.5,-314"/>
<text text-anchor="start" x="233.5" y="-323" font-family="Times,serif" font-style="italic" text-decoration="underline" font-size="10.00" fill="#000000">categoryid</text>
<text text-anchor="start" x="275.704" y="-323" font-family="Times,serif" font-size="10.00" fill="#000000">: NUMBER</text>
<polygon fill="none" stroke="#000000" points="228.5,-292 228.5,-314 333.5,-314 333.5,-292 228.5,-292"/>
<text text-anchor="start" x="233.5" y="-300" font-family="Times,serif" font-size="10.00" fill="#000000">createdAt: DATE</text>
<polygon fill="none" stroke="#000000" points="228.5,-270 228.5,-292 333.5,-292 333.5,-270 228.5,-270"/>
<text text-anchor="start" x="233.5" y="-278" font-family="Times,serif" font-size="10.00" fill="#000000">updatedAt: DATE</text>
</g>
<!-- Product&#45;&gt;Category -->
<g id="edge5" class="edge">
<title>Product&#45;&gt;Category</title>
<path fill="none" stroke="#00cd00" d="M215.738,-369C186.1381,-369 151.1019,-369 121.2634,-369"/>
<polygon fill="#00cd00" stroke="#00cd00" points="227.7983,-373.2 215.7983,-369.0001 227.7982,-364.8 227.7983,-373.2"/>
<polygon fill="#00cd00" stroke="#00cd00" points="121.2539,-369.0001 109.254,-363.6 115.2539,-369 109.2539,-369 109.2539,-369 109.2539,-369 115.2539,-369 109.2539,-374.4 121.2539,-369.0001 121.2539,-369.0001"/>
</g>
<!-- Product&#45;&gt;OrderDetail -->
<g id="edge2" class="edge">
<title>Product&#45;&gt;OrderDetail</title>
<path fill="none" stroke="#00cd00" d="M345.0548,-369C386.3672,-369 440.2032,-369 483.8479,-369"/>
<polygon fill="#00cd00" stroke="#00cd00" points="345.0243,-369.0001 333.0244,-363.6 339.0243,-369 333.0243,-369 333.0243,-369 333.0243,-369 339.0243,-369 333.0243,-374.4 345.0243,-369.0001 345.0243,-369.0001"/>
<polygon fill="#00cd00" stroke="#00cd00" points="495.8688,-373.2 483.8688,-369.0001 495.8688,-364.8 495.8688,-373.2"/>
</g>
</g>
</svg>
